<svg width="655" height="413.67951" xmlns="http://www.w3.org/2000/svg">

 <g>
  <title>Layer 1</title>
  <path id="svg_1" fill="#e6e6e6" d="m787.563,130.42277a122.04116,122.04116 0 0 1 10.10051,-38.51722q2.27961,-5.09249 5.01812,-9.96076a0.7438,0.7438 0 0 0 -1.28354,-0.75026a123.7286,123.7286 0 0 0 -13.7678,37.98231q-1.03367,5.58355 -1.55378,11.24593c-0.08811,0.95214 1.39893,0.94613 1.48649,0z"/>
  <circle id="svg_2" fill="#e6e6e6" r="9.4144" cy="166.9144" cx="775.2819"/>
  <path id="svg_3" fill="#e6e6e6" d="m788.526,130.67284a79.17357,79.17357 0 0 1 6.55267,-24.98791q1.47888,-3.30374 3.25549,-6.462a0.48254,0.48254 0 0 0 -0.83269,-0.48673a80.26825,80.26825 0 0 0 -8.93182,24.6409q-0.67059,3.6223 -1.008,7.29575c-0.05716,0.6177 0.90755,0.6138 0.96436,0l-0.00001,-0.00001z"/>
  <circle id="svg_4" fill="#e6e6e6" r="6.10756" cy="186.66195" cx="769.66984"/>
  <path id="svg_5" fill="#e6e6e6" d="m787.30883,130.0963a79.17368,79.17368 0 0 1 -10.2024,-23.73277q-0.86592,-3.51453 -1.40764,-7.09749a0.48253,0.48253 0 0 0 -0.95592,0.12838a80.26823,80.26823 0 0 0 8.11306,24.92247q1.69918,3.26856 3.69253,6.37254c0.33485,0.5222 1.09311,-0.07422 0.76037,-0.59313z"/>
  <circle id="svg_6" fill="#e6e6e6" r="6.10756" cy="186.23322" cx="743.73518"/>
  <path id="svg_7" fill="#f2f2f2" d="m768.55906,135.50001l0,-12a4.50508,4.50508 0 0 1 4.5,-4.5l28,0a4.50508,4.50508 0 0 1 4.5,4.5l0,12a4.50508,4.50508 0 0 1 -4.5,4.5l-28,0a4.50508,4.50508 0 0 1 -4.5,-4.5z"/>
  <path id="svg_8" fill="#f2f2f2" d="m769.05906,151.00001l-12,0a4.50507,4.50507 0 0 1 -4.5,-4.5l0,-49a4.50508,4.50508 0 0 1 4.5,-4.5l12,0a4.50508,4.50508 0 0 1 4.5,4.5l0,49a4.50508,4.50508 0 0 1 -4.5,4.5z"/>
  <rect id="svg_9" fill="#ccc" height="4" width="20" y="96.5" x="728.05906"/>
  <rect id="svg_10" fill="#ccc" height="4" width="20" y="133.5" x="753.05906"/>
  <path id="svg_11" fill="#f2f2f2" d="m799.05906,151.00001l-12,0a4.50507,4.50507 0 0 1 -4.5,-4.5l0,-49a4.50508,4.50508 0 0 1 4.5,-4.5l12,0a4.50508,4.50508 0 0 1 4.5,4.5l0,49a4.50508,4.50508 0 0 1 -4.5,4.5z"/>
  <rect id="svg_12" fill="#ccc" height="4" width="20" y="96.5" x="758.05906"/>
  <rect id="svg_13" fill="#ccc" height="4" width="20" y="133.5" x="783.05906"/>
  <path id="svg_14" fill="#f2f2f2" d="m829.05906,151.00001l-12,0a4.50507,4.50507 0 0 1 -4.5,-4.5l0,-49a4.50508,4.50508 0 0 1 4.5,-4.5l12,0a4.50508,4.50508 0 0 1 4.5,4.5l0,49a4.50508,4.50508 0 0 1 -4.5,4.5z"/>
  <rect id="svg_15" fill="#ccc" height="4" width="20" y="133.5" x="801.05906"/>
  <rect id="svg_16" fill="#ccc" height="4" width="20" y="133.5" x="813.05906"/>
  <path id="svg_17" fill="#f2f2f2" d="m876.05906,140.00001l-12,0a4.50507,4.50507 0 0 1 -4.5,-4.5l0,-49a4.50508,4.50508 0 0 1 4.5,-4.5l12,0a4.50508,4.50508 0 0 1 4.5,4.5l0,49a4.50508,4.50508 0 0 1 -4.5,4.5z"/>
  <rect id="svg_18" fill="#ccc" height="4" width="20" y="183.5" x="829.05906"/>
  <rect id="svg_19" fill="#ccc" height="4" width="20" y="122.5" x="860.05906"/>
  <path id="svg_20" fill="#f2f2f2" d="m908.05906,248.00001l-12,0a4.50507,4.50507 0 0 1 -4.5,-4.5l0,-49a4.50508,4.50508 0 0 1 4.5,-4.5l12,0a4.50508,4.50508 0 0 1 4.5,4.5l0,49a4.50508,4.50508 0 0 1 -4.5,4.5z"/>
  <rect id="svg_21" fill="#ccc" height="4" width="20" y="183.5" x="859.05906"/>
  <rect id="svg_22" fill="#ccc" height="4" width="20" y="122.5" x="890.05906"/>
  <path id="svg_23" fill="#f2f2f2" d="m936.05906,140.00001l-12,0a4.50507,4.50507 0 0 1 -4.5,-4.5l0,-49a4.50508,4.50508 0 0 1 4.5,-4.5l12,0a4.50508,4.50508 0 0 1 4.5,4.5l0,49a4.50508,4.50508 0 0 1 -4.5,4.5z"/>
  <rect id="svg_24" fill="#ccc" height="4" width="20" y="183.5" x="889.05906"/>
  <rect id="svg_25" fill="#ccc" height="4" width="20" y="122.5" x="920.05906"/>
  <path id="svg_26" fill="#f2f2f2" d="m797.05906,221.00001l-12,0a4.50507,4.50507 0 0 1 -4.5,-4.5l0,-49a4.50508,4.50508 0 0 1 4.5,-4.5l12,0a4.50508,4.50508 0 0 1 4.5,4.5l0,49a4.50508,4.50508 0 0 1 -4.5,4.5z"/>
  <rect id="svg_27" fill="#ccc" height="4" width="20" y="172.5" x="781.05906"/>
  <rect id="svg_28" fill="#ccc" height="4" width="20" y="203.5" x="781.05906"/>
  <path id="svg_29" fill="#f2f2f2" d="m827.05906,221.00001l-12,0a4.50507,4.50507 0 0 1 -4.5,-4.5l0,-49a4.50508,4.50508 0 0 1 4.5,-4.5l12,0a4.50508,4.50508 0 0 1 4.5,4.5l0,49a4.50508,4.50508 0 0 1 -4.5,4.5z"/>
  <rect id="svg_30" fill="#ccc" height="4" width="20" y="172.5" x="811.05906"/>
  <rect id="svg_31" fill="#ccc" height="4" width="20" y="203.5" x="811.05906"/>
  <path id="svg_32" fill="#f2f2f2" d="m857.05906,221.00001l-12,0a4.50507,4.50507 0 0 1 -4.5,-4.5l0,-49a4.50508,4.50508 0 0 1 4.5,-4.5l12,0a4.50508,4.50508 0 0 1 4.5,4.5l0,49a4.50508,4.50508 0 0 1 -4.5,4.5z"/>
  <rect id="svg_33" fill="#ccc" height="4" width="20" y="172.5" x="841.05906"/>
  <rect id="svg_34" fill="#ccc" height="4" width="20" y="203.5" x="841.05906"/>
  <path id="svg_35" fill="#f2f2f2" d="m859.05906,151.00001l-12,0a4.50507,4.50507 0 0 1 -4.5,-4.5l0,-49a4.50508,4.50508 0 0 1 4.5,-4.5l12,0a4.50508,4.50508 0 0 1 4.5,4.5l0,49a4.50508,4.50508 0 0 1 -4.5,4.5z"/>
  <rect id="svg_36" fill="#ccc" height="4" width="20" y="96.5" x="818.05906"/>
  <rect id="svg_37" fill="#ccc" height="4" width="20" y="133.5" x="843.05906"/>
  <path id="svg_38" fill="#f2f2f2" d="m889.05906,151.00001l-12,0a4.50507,4.50507 0 0 1 -4.5,-4.5l0,-49a4.50508,4.50508 0 0 1 4.5,-4.5l12,0a4.50508,4.50508 0 0 1 4.5,4.5l0,49a4.50508,4.50508 0 0 1 -4.5,4.5z"/>
  <rect id="svg_39" fill="#ccc" height="4" width="20" y="96.5" x="848.05906"/>
  <rect id="svg_40" fill="#ccc" height="4" width="20" y="133.5" x="873.05906"/>
  <path id="svg_41" fill="#f2f2f2" d="m919.05906,151.00001l-12,0a4.50507,4.50507 0 0 1 -4.5,-4.5l0,-49a4.50508,4.50508 0 0 1 4.5,-4.5l12,0a4.50508,4.50508 0 0 1 4.5,4.5l0,49a4.50508,4.50508 0 0 1 -4.5,4.5z"/>
  <rect id="svg_42" fill="#ccc" height="4" width="20" y="96.5" x="878.05906"/>
  <rect id="svg_43" fill="#ccc" height="4" width="20" y="133.5" x="903.05906"/>
  <path id="svg_44" fill="#f2f2f2" d="m949.05906,151.00001l-12,0a4.50507,4.50507 0 0 1 -4.5,-4.5l0,-49a4.50508,4.50508 0 0 1 4.5,-4.5l12,0a4.50508,4.50508 0 0 1 4.5,4.5l0,49a4.50508,4.50508 0 0 1 -4.5,4.5z"/>
  <rect id="svg_45" fill="#ccc" height="4" width="20" y="96.5" x="908.05906"/>
  <rect id="svg_46" fill="#ccc" height="4" width="20" y="133.5" x="933.05906"/>
  <path id="svg_47" fill="#ccc" d="m998,166.50001l-285,0a1,1 0 0 1 0,-2l285,0a1,1 0 0 1 0,2z"/>
  <path id="svg_48" fill="#ccc" d="m1025,141.50001l-285,0a1,1 0 0 1 0,-2l285,0a1,1 0 0 1 0,2z"/>
  <path id="svg_49" fill="#ccc" d="m1025,222.50001l-285,0a1,1 0 0 1 0,-2l285,0a1,1 0 0 1 0,2z"/>
  <path id="svg_50" fill="#e6e6e6" d="m952.563,211.42277a122.04116,122.04116 0 0 1 10.10051,-38.51722q2.27961,-5.09249 5.01812,-9.96076a0.7438,0.7438 0 0 0 -1.28354,-0.75026a123.7286,123.7286 0 0 0 -13.7678,37.98231q-1.03367,5.58355 -1.55378,11.24593c-0.08811,0.95214 1.39893,0.94613 1.48649,0z"/>
  <circle id="svg_51" fill="#e6e6e6" r="9.4144" cy="155.9144" cx="971.2819"/>
  <path id="svg_52" fill="#e6e6e6" d="m953.526,211.67284a79.17357,79.17357 0 0 1 6.55267,-24.98791q1.47888,-3.30374 3.25549,-6.462a0.48254,0.48254 0 0 0 -0.83269,-0.48673a80.26825,80.26825 0 0 0 -8.93182,24.6409q-0.67059,3.6223 -1.008,7.29575c-0.05716,0.6177 0.90755,0.6138 0.96436,0l-0.00001,-0.00001z"/>
  <circle id="svg_53" fill="#e6e6e6" r="6.10756" cy="175.66195" cx="965.66984"/>
  <path id="svg_54" fill="#e6e6e6" d="m952.30883,211.0963a79.17368,79.17368 0 0 1 -10.2024,-23.73277q-0.86592,-3.51453 -1.40764,-7.09749a0.48253,0.48253 0 0 0 -0.95592,0.12838a80.26823,80.26823 0 0 0 8.11306,24.92247q1.69918,3.26856 3.69253,6.37254c0.33485,0.5222 1.09311,-0.07422 0.76037,-0.59313z"/>
  <circle id="svg_55" fill="#e6e6e6" r="6.10756" cy="175.23322" cx="939.73518"/>
  <path id="svg_56" fill="#f2f2f2" d="m933.55906,216.50001l0,-12a4.50508,4.50508 0 0 1 4.5,-4.5l28,0a4.50508,4.50508 0 0 1 4.5,4.5l0,12a4.50508,4.50508 0 0 1 -4.5,4.5l-28,0a4.50508,4.50508 0 0 1 -4.5,-4.5z"/>
  <path id="svg_57" fill="#3f3d56" d="m382,363.50001l-381,0a1,1 0 0 1 0,-2l381,0a1,1 0 0 1 0,2z"/>
  <circle id="svg_58" fill="#2f2e41" r="27" cy="205.5" cx="199.05906"/>
  <polygon id="svg_59" fill="#ffb8b8" points="173.405 378.826 172.69 366.588 219.556 358.003 220.612 376.067 173.405 378.826"/>
  <path id="svg_60" fill="#2f2e41" transform="rotate(86.6546, 747.34, -113.142)" d="m1183.96205,485.02102l23.64387,0a0,0 0 0 1 0,0l0,14.88687a0,0 0 0 1 0,0l-38.53073,0a0,0 0 0 1 0,0l0,0a14.88686,14.88686 0 0 1 14.88686,-14.88687z"/>
  <polygon id="svg_61" fill="#ffb8b8" points="193.789 378.714 186.004 388.185 145.768 362.666 157.257 348.688 193.789 378.714"/>
  <path id="svg_62" fill="#2f2e41" transform="rotate(-50.5821, -597.32, 343.861)" d="m-142.93006,973.64813l23.64386,0a0,0 0 0 1 0,0l0,14.88687a0,0 0 0 1 0,0l-38.53072,0a0,0 0 0 1 0,0l0,0a14.88686,14.88686 0 0 1 14.88686,-14.88687z"/>
  <path id="svg_63" fill="#2f2e41" d="m171.38663,334.67l-5.31975,25.07884a4,4 0 0 0 3.84843,4.8295l52.29785,0.84351a4,4 0 0 0 4.00364,-4.69462l-4.57453,-25.92236a4,4 0 0 0 -3.93914,-3.30486l-42.40356,0a4,4 0 0 0 -3.91294,3.16999z"/>
  <path id="svg_64" fill="#2f2e41" d="m180.05906,343.50001s-51,-32 -61,-15c-5,8.5 -2.5,16.75 1.25,22.875a34.63053,34.63053 0 0 0 14.4025,12.89112l41.3475,20.23388l15,-16l-10,-9l-1,-16z"/>
  <path id="svg_65" fill="#2f2e41" d="m206.05906,338.50001s66,-19 53,17s-62,22 -62,22l-5,-15l17,-12l-3,-12z"/>
  <circle id="svg_66" fill="#ffb8b8" r="24.56103" cy="211.66535" cx="199.39764"/>
  <path id="svg_67" fill="#ccc" d="m200.68454,342.46877a131.99386,131.99386 0 0 1 -30.25708,-3.98633l-0.29248,-0.08007l-13.70556,-63.04493a23.2247,23.2247 0 0 1 14.93286,-26.94335a80.45969,80.45969 0 0 1 51.29956,-1.02442l0.00024,0a23.46956,23.46956 0 0 1 15.635,27.76465l-15.30835,63.19531l-0.21557,0.10254c-6.36181,3.01366 -14.31716,4.0166 -22.08862,4.0166z"/>
  <path id="svg_68" fill="#ffb8b8" d="m182.27438,347.36628a10.05573,10.05573 0 0 1 14.47536,-5.31221l26.98651,-23.42452l2.44163,18.40848l-26.00117,19.4221a10.11027,10.11027 0 0 1 -17.90233,-9.09385z"/>
  <path id="svg_69" fill="#ccc" d="m208.01218,352.4756a4.53353,4.53353 0 0 1 -1.29639,-0.19043a4.45263,4.45263 0 0 1 -2.9624,-2.81641l-3.25732,-9.22851a4.472,4.472 0 0 1 1.30224,-4.90235l36.7688,-22.07422l-14.49411,-64.66113l0.36865,-0.08887c0.14991,-0.0371 15.00025,-3.417 21.0857,12.81055c4.26147,11.36524 20.03149,36.07715 18.91894,52.77637a14.88461,14.88461 0 0 1 -12.322,13.72754l-41.38818,23.71289a4.456,4.456 0 0 1 -2.72393,0.93457z"/>
  <path id="svg_70" fill="#ffb8b8" d="m212.13609,345.1727a10.05575,10.05575 0 0 0 -14.47536,-5.31221l-26.9865,-23.42452l-2.44163,18.40848l26.00117,19.4221a10.11027,10.11027 0 0 0 17.90232,-9.09385z"/>
  <path id="svg_71" fill="#ccc" d="m189.10593,352.4756a4.456,4.456 0 0 1 -2.72388,-0.93457l-44.38818,-21.71289a14.88461,14.88461 0 0 1 -12.322,-13.72754c-1.11255,-16.69922 17.65747,-43.41113 21.91894,-54.77637c6.085,-16.22754 20.93555,-12.84863 21.0857,-12.81055l0.36865,0.08887l-17.49416,66.66113l39.7688,20.07422a4.472,4.472 0 0 1 1.30224,4.90235l-3.25732,9.22851a4.45263,4.45263 0 0 1 -2.9624,2.81641a4.5348,4.5348 0 0 1 -1.29639,0.19043z"/>
  <path id="svg_72" fill="#64638a" d="m242.05908,362.49993l-89,0a7.00818,7.00818 0 0 1 -7,-7l0,-49a7.00818,7.00818 0 0 1 7,-7l89,0a7.00817,7.00817 0 0 1 7,7l0,49a7.00818,7.00818 0 0 1 -7,7z"/>
  <circle id="svg_73" fill="#fff" r="6" cy="331" cx="197.55906"/>
  <path id="svg_74" fill="#2f2e41" d="m174.59061,210.6657c-1.45566,-3.6923 0.93266,-8.09242 4.47568,-9.881s7.81846,-1.44843 11.60824,-0.26964c3.18484,0.99063 6.16976,2.52588 9.27688,3.73845a20.76152,20.76152 0 0 0 9.75287,1.73691c3.31428,-0.37431 6.61291,-2.23278 7.96907,-5.28c1.40574,-3.15859 0.44963,-7.01316 -1.71516,-9.7088a18.79922,18.79922 0 0 0 -8.61171,-5.5348c-7.3075,-2.57443 -15.74829,-2.64969 -22.53234,1.0925s-11.39446,11.7102 -9.99219,19.33"/>
  <path id="svg_75" fill="#e6e6e6" d="m32.66247,351.81847a122.0417,122.0417 0 0 1 10.10053,-38.51722q2.27961,-5.09249 5.01813,-9.96076a0.7438,0.7438 0 0 0 -1.28354,-0.75026a123.72825,123.72825 0 0 0 -13.7678,37.98231q-1.03366,5.58356 -1.55378,11.24593c-0.08811,0.95214 1.39893,0.94613 1.48648,0l-0.00002,0z"/>
  <circle id="svg_76" fill="#64638a" r="9.4144" cy="296.31007" cx="51.38142"/>
  <path id="svg_77" fill="#e6e6e6" d="m33.6255,352.06851a79.1741,79.1741 0 0 1 6.55267,-24.98791q1.47889,-3.30373 3.25549,-6.462a0.48254,0.48254 0 0 0 -0.83269,-0.48673a80.26852,80.26852 0 0 0 -8.93181,24.64089q-0.67059,3.62232 -1.008,7.29576c-0.05716,0.6177 0.90755,0.6138 0.96435,0l-0.00001,-0.00001z"/>
  <circle id="svg_78" fill="#64638a" r="6.10756" cy="316.05762" cx="45.76935"/>
  <path id="svg_79" fill="#e6e6e6" d="m32.40835,351.49197a79.174,79.174 0 0 1 -10.20241,-23.73277q-0.86592,-3.51453 -1.40763,-7.09749a0.48253,0.48253 0 0 0 -0.95592,0.12838a80.26809,80.26809 0 0 0 8.11306,24.92246q1.69919,3.26857 3.69252,6.37255c0.33485,0.5222 1.09311,-0.07422 0.76038,-0.59313z"/>
  <circle id="svg_80" fill="#64638a" r="6.10756" cy="315.62888" cx="19.8347"/>
  <path id="svg_81" fill="#f2f2f2" d="m13.65857,356.89568l0,-12a4.50508,4.50508 0 0 1 4.5,-4.5l28,0a4.50508,4.50508 0 0 1 4.5,4.5l0,12a4.50508,4.50508 0 0 1 -4.5,4.5l-28,0a4.50508,4.50508 0 0 1 -4.5,-4.5z"/>
  <path id="svg_82" fill="#ff6584" d="m314.40885,370.90062c0,6.57707 -5.33178,9.56657 -11.90885,9.56657s-11.90885,-2.9895 -11.90885,-9.56657s2.64641,-14.25113 11.90885,-11.60471c9.26244,-3.96962 11.90885,5.02763 11.90885,11.60471z"/>
  <path id="svg_83" fill="#3f3d56" d="m301.91992,362.37688a1.90366,1.90366 0 0 1 -1.89111,-1.65918c-0.39429,-3.28125 -2.56763,-9.708 -3.48364,-12.31836l-0.00025,-0.001a1.703,1.703 0 0 1 0.22022,-1.5664a1.78652,1.78652 0 0 1 2.66333,-0.19239a1.70477,1.70477 0 0 1 0.46826,1.27637c-0.17944,3.35059 2.26294,8.76465 3.73486,11.69434a1.90795,1.90795 0 0 1 -1.50976,2.75586a1.76339,1.76339 0 0 1 -0.20191,0.01076z"/>
  <path id="svg_84" fill="#3f3d56" d="m310.732,354.98549c4.13393,-3.38342 0.89056,-10.30763 -4.28341,-8.9784a4.17809,4.17809 0 0 0 -1.8637,0.99416c-3.17381,2.99811 -3.66567,10.66906 -3.66567,10.66906s5.60455,0.75938 9.81278,-2.68482z"/>
 </g>
</svg>